<?xml version="1.0" encoding="utf-8"?>
<!-- Generator: Adobe Illustrator 16.0.0, SVG Export Plug-In . SVG Version: 6.00 Build 0)  -->
<!DOCTYPE svg PUBLIC "-//W3C//DTD SVG 1.1//EN" "http://www.w3.org/Graphics/SVG/1.1/DTD/svg11.dtd">
<svg version="1.1" id="Layer_1" xmlns="http://www.w3.org/2000/svg" xmlns:xlink="http://www.w3.org/1999/xlink" x="0px" y="0px"
	 width="56.689px" height="56.689px" viewBox="0 0 56.689 56.689" enable-background="new 0 0 56.689 56.689" xml:space="preserve">
<path fill="#FFFFFF" d="M48.221,9.595H8.47c-3.309,0-6,2.691-6,6v1.103v23.298v1.102c0,3.31,2.691,6,6,6h39.75c3.309,0,6-2.69,6-6
	v-1.102V16.695v-1.101C54.221,12.286,51.529,9.595,48.221,9.595z M48.221,11.595c0.275,0,0.543,0.028,0.803,0.082
	c0.084,0.017,0.16,0.052,0.242,0.074c0.172,0.047,0.346,0.09,0.508,0.158c0.088,0.036,0.164,0.092,0.25,0.135
	c0.146,0.074,0.295,0.143,0.431,0.232c0.078,0.055,0.145,0.122,0.219,0.183c0.127,0.099,0.258,0.191,0.373,0.307
	c0.065,0.065,0.117,0.146,0.178,0.216c0.107,0.122,0.219,0.24,0.312,0.375c0.055,0.08,0.092,0.172,0.141,0.256
	c0.08,0.14,0.166,0.273,0.229,0.423c0.041,0.095,0.062,0.198,0.095,0.299c0.051,0.147,0.106,0.294,0.141,0.449
	c0.023,0.11,0.023,0.229,0.037,0.345c0.018,0.148,0.043,0.295,0.045,0.449l-18.97,11.596H33.25l-4.906,3.001l-4.906-3.001h-0.001
	L4.472,15.576c0.001-0.146,0.028-0.286,0.043-0.43C4.53,15.025,4.53,14.9,4.554,14.782c0.028-0.14,0.081-0.268,0.124-0.399
	c0.037-0.116,0.063-0.238,0.11-0.35c0.053-0.125,0.128-0.236,0.191-0.354c0.061-0.106,0.108-0.222,0.178-0.323
	c0.074-0.109,0.169-0.206,0.255-0.308c0.078-0.095,0.146-0.196,0.233-0.283c0.093-0.093,0.202-0.167,0.305-0.251
	c0.097-0.078,0.185-0.167,0.287-0.236c0.11-0.074,0.234-0.128,0.354-0.19c0.108-0.06,0.211-0.128,0.326-0.177
	c0.146-0.063,0.307-0.101,0.462-0.145c0.097-0.028,0.188-0.068,0.287-0.089c0.26-0.054,0.527-0.082,0.804-0.082H48.221z M4.47,17.92
	l17.051,10.425L4.47,38.771V17.92z M8.47,45.096c-0.275,0-0.544-0.028-0.804-0.081c-0.122-0.024-0.234-0.073-0.354-0.108
	c-0.133-0.04-0.27-0.07-0.396-0.123c-0.152-0.064-0.29-0.152-0.434-0.234c-0.08-0.047-0.168-0.082-0.245-0.134
	C6.101,44.323,5.98,44.209,5.855,44.1c-0.067-0.059-0.145-0.107-0.208-0.172c-0.112-0.112-0.206-0.242-0.305-0.367
	c-0.06-0.075-0.13-0.143-0.185-0.223c-0.081-0.119-0.141-0.253-0.208-0.38c-0.054-0.102-0.117-0.193-0.162-0.299
	c-0.052-0.119-0.078-0.248-0.117-0.373c-0.04-0.125-0.09-0.246-0.117-0.376c-0.024-0.119-0.025-0.246-0.039-0.368
	C4.5,41.398,4.473,41.26,4.472,41.115l18.966-11.598l4.906,3l4.906-3l18.969,11.598c-0.002,0.146-0.027,0.283-0.043,0.427
	c-0.014,0.122-0.016,0.249-0.039,0.368c-0.027,0.13-0.078,0.251-0.117,0.376s-0.065,0.254-0.117,0.373
	c-0.045,0.104-0.108,0.197-0.161,0.299c-0.068,0.127-0.128,0.261-0.209,0.38c-0.056,0.08-0.125,0.146-0.185,0.223
	c-0.1,0.125-0.19,0.255-0.305,0.367c-0.064,0.063-0.142,0.113-0.209,0.172c-0.125,0.109-0.246,0.224-0.383,0.315
	c-0.078,0.052-0.166,0.087-0.246,0.134c-0.144,0.082-0.279,0.17-0.433,0.234c-0.127,0.053-0.264,0.083-0.396,0.123
	c-0.119,0.035-0.23,0.084-0.354,0.108c-0.26,0.053-0.526,0.081-0.803,0.081L8.47,45.096L8.47,45.096z M52.221,38.771L35.168,28.345
	l17.053-10.426V38.771z"/>
</svg>
